PathFileType	4	(X/Y/Z)	C:\Users\Basilio\Documents\Thesis Gigler\squatting_fais\c3dfiles\038\SLS_front_pre5\markers_experimental.trc
DataRate	CameraRate	NumFrames	NumMarkers	Units	OrigDataRate	OrigDataStartFrame	OrigNumFrames
200.000000	200.000000	4	61	mm	200.000000	1340	1532
Frame#	Time	FHD			LBHD			RBHD			C7			T10			CLAV			LSHO			LUUPA			LMUPA			LDUPA			LLEP			LMEP			LRAD			LUL			LRFIN			RSHO			RUPA1			RMUPA			RDUPA			RLEP			RMEP			RRAD			RUL			RUFIN			LASI			RASI			USACR			LSACR			RSACR			LTHI1			LTHI2			LTHI3			LTHI4			LLFC			LMFC			LTIB1			LTIB2			LTIB3			LTIB4			LLMAL			LMMAL			LHEE			LMT1			LMT2			LMT5			RTHI			RTHI2			RTHI3			RTHI4			RLFC			RMFC			RTIB1			RTIB2			RTIB3			RTIB4			RLMAL			RMMAL			RHEE			RMT1			RMT2			RMT5			
		X1	Y1	Z1	X2	Y2	Z2	X3	Y3	Z3	X4	Y4	Z4	X5	Y5	Z5	X6	Y6	Z6	X7	Y7	Z7	X8	Y8	Z8	X9	Y9	Z9	X10	Y10	Z10	X11	Y11	Z11	X12	Y12	Z12	X13	Y13	Z13	X14	Y14	Z14	X15	Y15	Z15	X16	Y16	Z16	X17	Y17	Z17	X18	Y18	Z18	X19	Y19	Z19	X20	Y20	Z20	X21	Y21	Z21	X22	Y22	Z22	X23	Y23	Z23	X24	Y24	Z24	X25	Y25	Z25	X26	Y26	Z26	X27	Y27	Z27	X28	Y28	Z28	X29	Y29	Z29	X30	Y30	Z30	X31	Y31	Z31	X32	Y32	Z32	X33	Y33	Z33	X34	Y34	Z34	X35	Y35	Z35	X36	Y36	Z36	X37	Y37	Z37	X38	Y38	Z38	X39	Y39	Z39	X40	Y40	Z40	X41	Y41	Z41	X42	Y42	Z42	X43	Y43	Z43	X44	Y44	Z44	X45	Y45	Z45	X46	Y46	Z46	X47	Y47	Z47	X48	Y48	Z48	X49	Y49	Z49	X50	Y50	Z50	X51	Y51	Z51	X52	Y52	Z52	X53	Y53	Z53	X54	Y54	Z54	X55	Y55	Z55	X56	Y56	Z56	X57	Y57	Z57	X58	Y58	Z58	X59	Y59	Z59	X60	Y60	Z60	X61	Y61	Z61	

1341	6.7	-207.5711212158204	1775.327026367188	-1035.599487304688	-363.0285949707032	1720.179809570313	-1094.516479492188	-351.7751770019532	1703.95654296875	-949.5603027343752	-403.971405029297	1536.123168945313	-1024.32177734375	-377.4201049804688	1255.363403320313	-1008.993225097656	-258.1474609375001	1525.45751953125	-1034.86962890625	-319.7270507812501	1557.216674804688	-1177.615600585938	-150.8687896728516	1502.0146484375	-1305.288696289063	-124.373046875	1534.899169921875	-1275.986206054688	-81.64692687988283	1510.4296875	-1310.307495117188	-19.55732536315918	1513.240600585938	-1309.113159179688	-9.462861061096193	1437.622314453125	-1289.111328125	261.3426818847657	1501.825073242188	-1189.665649414063	273.6777343750001	1525.911499023438	-1257.267456054688	329.5829772949219	1535.210815429688	-1161.72119140625	-305.7162475585938	1552.24365234375	-889.646667480469	-151.2432098388672	1519.944702148438	-765.1372680664064	-114.3248138427735	1531.16796875	-795.0630493164065	-84.3715286254883	1515.7529296875	-744.9125366210939	-11.09750270843506	1513.486694335938	-731.7850952148439	-4.790739536285401	1434.797973632813	-747.5779418945314	264.2483215332032	1507.361450195313	-816.459655761719	275.9566955566407	1523.932495117188	-747.8583374023439	345.4787597656251	1539.547485351563	-822.897644042969	-204.5780487060547	1067.95947265625	-1120.476440429688	-208.5970306396485	1088.166015625	-866.3278808593752	-375.0960998535157	1123.5205078125	-998.7021484375002	-388.5779724121095	1093.924926757813	-1024.51806640625	-386.8377075195314	1096.581909179688	-968.4583129882815	-257.2828979492188	746.1296386718751	-1165.04296875	-229.1735382080079	665.6712036132814	-1159.709594726563	-180.8280639648438	669.1473999023439	-1143.767944335938	-257.6427001953126	617.6822509765626	-1137.784912109375	-255.4470367431641	556.2189941406251	-1129.902587890625	-231.9523010253907	547.4533691406251	-1012.685974121094	-235.4712219238282	365.1753540039063	-1060.6953125	-287.9438171386719	328.7668457031251	-1122.0322265625	-252.7763214111329	319.2869873046876	-1095.4208984375	-270.7227172851563	242.6187133789063	-1065.550415039063	-367.7335510253907	115.05517578125	-1076.025146484375	-325.8468017578126	131.6983947753907	-1008.143005371094	-416.5712280273439	96.11012268066409	-1017.191711425781	-216.5263824462891	48.78555297851564	-1019.363037109375	-210.5163879394532	44.57603454589844	-1070.380737304688	-257.4746093750001	30.81350326538087	-1114.421142578125	-272.2619628906251	815.7006835937502	-805.3801879882815	-240.4916992187501	756.5458984375001	-799.0127563476565	-207.1877441406251	755.4888305664064	-803.322937011719	-275.1696777343751	679.6682739257814	-814.806091308594	-271.5988159179688	543.0476074218751	-816.9168701171877	-275.8058471679688	537.7102661132814	-937.7951660156252	-243.3759155273438	363.0535888671876	-838.7003173828127	-322.7366943359376	290.9696044921876	-793.8157958984377	-277.8058471679688	289.7296142578126	-807.073669433594	-274.4521789550782	237.4206237792969	-835.260437011719	-345.7244873046876	122.8008499145508	-797.8186645507815	-322.4455261230469	126.3804321289063	-878.9707641601565	-411.2526855468751	88.16847991943361	-854.799743652344	-198.2983093261719	50.16784667968751	-861.5952758789065	-197.6222839355469	48.67704010009767	-814.709167480469	-239.1437225341797	35.1660270690918	-767.7429809570314	
1342	6.705	-207.8319702148438	1775.2470703125	-1035.161499023438	-363.2138977050782	1720.321899414063	-1094.216552734375	-351.9136657714844	1704.32373046875	-949.6520996093752	-404.0713195800782	1536.111328125	-1024.1396484375	-377.5530090332032	1255.34130859375	-1008.864868164063	-258.2942810058594	1525.532348632813	-1034.623046875	-319.8189086914063	1557.260498046875	-1177.390991210938	-150.9525756835938	1502.170776367188	-1304.973876953125	-124.3560562133789	1535.017456054688	-1275.701904296875	-81.7692337036133	1510.5869140625	-1310.014770507813	-19.59427261352539	1513.436157226563	-1308.837158203125	-9.511516571044924	1437.722900390625	-1288.77685546875	261.2373046875001	1502.190551757813	-1189.356323242188	273.5891418457032	1526.052856445313	-1257.086181640625	329.4411315917969	1535.445068359375	-1161.474243164063	-305.8737182617188	1552.25634765625	-889.4343261718752	-151.3373718261719	1519.973388671875	-764.9578247070314	-114.7294006347657	1531.067626953125	-795.0303955078127	-84.49171447753908	1515.9013671875	-744.7598266601564	-11.25476741790772	1513.517822265625	-731.5821533203126	-4.956688880920411	1434.866943359375	-747.4130249023439	263.9982299804688	1507.426879882813	-816.377624511719	275.7618408203126	1523.964111328125	-747.8197631835939	345.2852172851563	1539.511840820313	-822.8281250000002	-204.6618194580079	1068.019409179688	-1120.3759765625	-208.5951080322266	1088.19091796875	-866.1921997070315	-375.1502990722657	1123.568359375	-998.5621337890627	-388.6376342773439	1093.94482421875	-1024.408935546875	-386.7268676757814	1096.571044921875	-968.2735595703127	-257.3653564453126	745.8907470703126	-1165.004272460938	-229.2845001220704	665.7153930664064	-1159.625244140625	-180.2660064697266	668.4521484375001	-1143.557250976563	-257.7575073242188	617.7301025390626	-1137.64697265625	-255.6569519042969	556.2171630859376	-1129.837036132813	-231.952377319336	547.3734741210939	-1012.658874511719	-235.5708007812501	365.3143310546876	-1060.591064453125	-288.1340332031251	328.8186950683594	-1121.944213867188	-252.7871246337891	319.3417358398438	-1095.342163085938	-270.7410278320313	242.6179351806641	-1065.561767578125	-367.7795104980469	115.0732040405274	-1075.64501953125	-326.0309753417969	131.6486968994141	-1008.209716796875	-416.3013305664064	95.59735107421876	-1017.388671875	-216.5016479492188	48.83902740478517	-1019.345703125	-210.5319061279297	44.6031837463379	-1070.3818359375	-257.4245605468751	30.87492942810059	-1114.420654296875	-272.2201232910157	815.7316894531252	-805.2996215820315	-240.4471588134766	756.5401611328126	-798.9111938476565	-207.1794891357422	755.5166625976564	-803.1875610351565	-275.1499633789063	679.6618041992189	-814.7364501953127	-271.6280517578126	543.0686035156251	-816.844177246094	-275.7745361328126	537.7499389648439	-937.789245605469	-243.3394470214844	363.0562744140626	-838.662536621094	-322.7242431640626	291.0301818847657	-793.8031005859377	-277.8071289062501	289.7544250488282	-807.0987548828127	-274.4537658691407	237.4333038330079	-835.2661132812502	-345.7095336914063	122.8080291748047	-797.822937011719	-322.4526672363282	126.3905487060547	-878.9868164062502	-411.236541748047	88.1909866333008	-854.7604980468752	-198.2923889160157	50.12202453613283	-861.5828857421877	-197.6042022705079	48.65895843505861	-814.685974121094	-239.1264801025391	35.16330718994141	-767.7335205078126	
1343	6.71	-207.8889160156251	1775.281616210938	-1034.82470703125	-363.3635253906251	1720.341918945313	-1093.994018554688	-352.1409606933594	1704.355834960938	-949.3833007812502	-404.2454223632814	1536.172119140625	-1023.864501953125	-377.5085754394532	1255.400512695313	-1008.687255859375	-258.4518127441407	1525.532958984375	-1034.486083984375	-319.9407043457032	1557.280395507813	-1177.169189453125	-151.0334014892578	1502.34521484375	-1304.654174804688	-124.4161682128907	1535.1826171875	-1275.3984375	-81.87552642822267	1510.729736328125	-1309.731567382813	-19.70023345947266	1513.558227539063	-1308.479614257813	-9.579236030578615	1437.88525390625	-1288.43359375	260.8622741699219	1502.866943359375	-1189.068725585938	273.5327453613282	1526.219360351563	-1256.867309570313	329.3735351562501	1535.682739257813	-1161.273071289063	-306.0184631347657	1552.26611328125	-889.2353515625002	-151.4491119384766	1519.954223632813	-764.7792358398439	-114.909164428711	1531.02392578125	-794.816589355469	-84.60433197021486	1515.70166015625	-744.6618041992189	-11.42719841003418	1513.579956054688	-731.4141235351564	-5.170640468597413	1434.87060546875	-747.2581787109376	263.8788146972657	1507.546630859375	-816.3552856445315	275.5918579101563	1523.95263671875	-747.7276611328126	345.0619506835938	1539.597045898438	-822.7886962890627	-204.6632537841797	1068.064453125	-1120.253662109375	-208.6280059814454	1088.223754882813	-866.0911254882815	-375.1528625488282	1123.543579101563	-998.4772949218752	-388.6102905273439	1093.945556640625	-1024.295532226563	-386.7866516113282	1096.562133789063	-968.1983642578127	-257.4346618652344	745.9434204101564	-1164.918334960938	-229.3598175048829	665.7691040039064	-1159.531616210938	-180.579818725586	668.7035522460939	-1143.449462890625	-257.8789672851563	617.7803344726564	-1137.511108398438	-256.0380859375001	555.9652099609376	-1129.81689453125	-231.9899139404297	547.3169555664064	-1012.558288574219	-235.7234497070313	365.3008422851563	-1060.510620117188	-288.1969299316407	328.8477783203126	-1121.92919921875	-252.8627014160157	319.3388671875001	-1095.326171875	-270.7990722656251	242.6477508544922	-1065.5185546875	-367.7546691894532	115.0160827636719	-1075.630249023438	-326.0314331054688	131.56396484375	-1008.202575683594	-416.5769653320314	96.06055450439456	-1017.165832519531	-216.5355072021485	48.85394287109376	-1019.379760742188	-210.528305053711	44.59662628173829	-1070.398681640625	-257.2732543945313	30.75818824768067	-1114.428466796875	-272.1897888183594	815.7554931640627	-805.2407226562502	-240.4432220458985	756.5515136718751	-798.8623657226565	-207.1889648437501	755.5722045898439	-803.1099243164065	-275.1270446777344	679.6836547851564	-814.733581542969	-271.5959472656251	543.0695800781251	-816.8403320312502	-275.7139587402344	537.7849731445314	-937.7421875000002	-243.3598022460938	363.1036071777344	-838.659851074219	-322.7258911132813	291.0490417480469	-793.7947998046877	-277.8154296875001	289.7608337402344	-807.089538574219	-274.4389648437501	237.5025939941407	-835.2174072265627	-345.7142944335938	122.8185424804688	-797.8198242187502	-322.4202270507813	126.4277267456055	-879.012390136719	-411.218231201172	88.18920135498048	-854.7746582031252	-198.3000488281251	50.12991333007814	-861.594177246094	-197.6549224853516	48.6368980407715	-814.7145996093752	-239.1242828369141	35.13469696044923	-767.7395629882814	
1344	6.715	-208.0781402587891	1775.184204101563	-1034.462646484375	-363.5053710937501	1720.408569335938	-1093.767211914063	-352.2927246093751	1704.352905273438	-949.1660766601565	-404.367401123047	1536.193969726563	-1023.690612792969	-377.5446472167969	1255.443237304688	-1008.563598632813	-258.5905151367188	1525.551513671875	-1034.259155273438	-320.0727539062501	1557.348754882813	-1176.966796875	-151.095443725586	1502.483764648438	-1304.35107421875	-124.3740921020508	1535.334594726563	-1275.16162109375	-81.92050933837892	1510.89306640625	-1309.439697265625	-19.75921821594239	1513.751831054688	-1308.148559570313	-9.692976951599123	1438.184692382813	-1288.063720703125	259.5485534667969	1504.354858398438	-1189.173706054688	273.4598388671876	1526.471069335938	-1256.644165039063	329.3977355957032	1535.812255859375	-1161.041748046875	-306.1429748535157	1552.253173828125	-889.104675292969	-151.5800323486328	1519.96923828125	-764.6320800781251	-115.1279449462891	1530.961181640625	-794.6923828125002	-84.8176727294922	1515.939575195313	-744.4537353515626	-11.59930515289307	1513.626831054688	-731.2546386718751	-5.311817646026612	1434.910522460938	-747.1096801757814	263.7586669921876	1507.5712890625	-816.327575683594	275.4604492187501	1523.986694335938	-747.7160644531251	345.0383300781251	1540.0009765625	-823.0733032226565	-204.7196197509766	1068.163940429688	-1120.159301757813	-208.6315917968751	1088.273681640625	-865.994079589844	-375.2525634765626	1123.591552734375	-998.3403320312502	-388.6437072753907	1093.9208984375	-1024.191528320313	-386.7993469238282	1096.582153320313	-968.1157226562502	-257.5124511718751	746.0003051757814	-1164.822021484375	-229.4906463623047	665.8558959960939	-1159.438110351563	-180.7115478515625	668.7525024414064	-1143.259643554688	-258.0447387695313	617.8674926757814	-1137.444946289063	-256.2368164062501	556.0100708007814	-1129.73193359375	-231.8446350097657	547.1746826171876	-1012.5302734375	-235.8579254150391	365.2886352539063	-1060.36328125	-288.3033142089844	328.8463134765626	-1121.888793945313	-252.9360351562501	319.3940429687501	-1095.278198242188	-270.8310546875001	242.7124176025391	-1065.427490234375	-367.6820983886719	115.0072784423828	-1075.601196289063	-326.0563354492188	131.5778198242188	-1008.171813964844	-416.3176574707032	95.60622406005861	-1017.4375	-216.5453033447266	48.95980072021486	-1019.358764648438	-210.5327453613282	44.57365798950196	-1070.405029296875	-257.4437866210938	30.86406707763673	-1114.429321289063	-272.2149658203126	815.7597656250002	-805.1857910156252	-240.4630432128907	756.5783081054689	-798.847839355469	-207.260482788086	755.6334838867189	-803.004577636719	-275.1313781738282	679.6979980468751	-814.6460571289065	-271.6497192382813	543.0811157226564	-816.7971801757815	-275.7229003906251	537.7980346679689	-937.7285156250002	-243.3468322753907	363.1607666015626	-838.602478027344	-322.7310791015626	291.0583801269532	-793.799743652344	-277.8221435546876	289.8067016601563	-807.0627441406252	-274.4297180175782	237.529525756836	-835.201599121094	-345.7223815917969	122.7951812744141	-797.8447265625002	-322.4390258789063	126.407096862793	-878.9944458007815	-411.2160644531251	88.2078094482422	-854.736022949219	-198.2961730957032	50.12358856201173	-861.5977172851565	-197.6495819091797	48.6799659729004	-814.6467895507815	-239.1437988281251	35.15500640869141	-767.7579956054689	
